<?xml version="1.0" encoding="UTF-8"?>
<!DOCTYPE svg PUBLIC "-//W3C//DTD SVG 1.1//EN" "http://www.w3.org/Graphics/SVG/1.1/DTD/svg11.dtd">
<svg xmlns="http://www.w3.org/2000/svg" version="1.1" width="291px" height="291px" style="shape-rendering:geometricPrecision; text-rendering:geometricPrecision; image-rendering:optimizeQuality; fill-rule:evenodd; clip-rule:evenodd" xmlns:xlink="http://www.w3.org/1999/xlink">
<g><path style="opacity:1" fill="#fdfffe" d="M -0.5,-0.5 C 8.83333,-0.5 18.1667,-0.5 27.5,-0.5C 13.5773,3.75627 4.24398,12.7563 -0.5,26.5C -0.5,17.5 -0.5,8.5 -0.5,-0.5 Z"/></g>
<g><path style="opacity:1" fill="#fcfffe" d="M 262.5,-0.5 C 271.833,-0.5 281.167,-0.5 290.5,-0.5C 290.5,8.5 290.5,17.5 290.5,26.5C 285.765,12.7651 276.431,3.76506 262.5,-0.5 Z"/></g>
<g><path style="opacity:1" fill="#01fefe" d="M 27.5,-0.5 C 105.833,-0.5 184.167,-0.5 262.5,-0.5C 276.431,3.76506 285.765,12.7651 290.5,26.5C 290.5,102.5 290.5,178.5 290.5,254.5C 286.863,268.973 277.863,278.473 263.5,283C 224.032,284.149 184.532,284.649 145,284.5C 107.5,284.333 70,284.167 32.5,284C 15.008,281.337 4.00804,271.504 -0.5,254.5C -0.5,178.5 -0.5,102.5 -0.5,26.5C 4.24398,12.7563 13.5773,3.75627 27.5,-0.5 Z"/></g>
<g><path style="opacity:1" fill="#232021" d="M 225.5,55.5 C 245.091,54.9891 252.591,64.3225 248,83.5C 241.109,93.6873 232.276,95.854 221.5,90C 212.491,81.4324 211.325,71.9324 218,61.5C 220.478,59.3606 222.978,57.3606 225.5,55.5 Z"/></g>
<g><path style="opacity:1" fill="#232021" d="M 175.5,89.5 C 191.24,89.7407 206.906,90.9074 222.5,93C 226.327,94.746 229.993,96.746 233.5,99C 239.96,107.129 246.794,114.963 254,122.5C 257.766,116.072 262.266,110.238 267.5,105C 278.129,104.419 281.962,109.253 279,119.5C 271.167,130.667 263.333,141.833 255.5,153C 251.833,155 248.167,155 244.5,153C 236.32,145.485 228.82,137.319 222,128.5C 216.328,137.174 211.161,146.174 206.5,155.5C 215.84,156.601 225.174,157.767 234.5,159C 242.572,160.673 246.072,165.507 245,173.5C 239.466,185.24 234.466,197.24 230,209.5C 227.259,214.419 223.092,216.252 217.5,215C 211.482,212.465 208.982,207.965 210,201.5C 212.069,196.459 214.236,191.459 216.5,186.5C 207.857,185.069 199.19,184.236 190.5,184C 182.207,198.085 174.04,212.252 166,226.5C 159.45,233.088 152.783,233.088 146,226.5C 142.814,222.702 141.814,218.368 143,213.5C 160.833,182.333 178.667,151.167 196.5,120C 189.914,118.28 183.247,117.614 176.5,118C 171.253,125.16 166.253,132.493 161.5,140C 152.648,144.495 147.315,141.828 145.5,132C 145.625,130.373 146.125,128.873 147,127.5C 154.333,116.833 161.667,106.167 169,95.5C 171.063,93.2659 173.229,91.2659 175.5,89.5 Z"/></g>
<g><path style="opacity:1" fill="#232122" d="M 9.5,148.5 C 18.5931,166.771 30.9265,182.605 46.5,196C 71.6868,215.865 99.3535,220.365 129.5,209.5C 130.465,213.479 130.965,217.479 131,221.5C 113.447,234.844 93.947,238.678 72.5,233C 46.7544,222.921 28.5877,205.088 18,179.5C 14.0714,169.451 11.238,159.117 9.5,148.5 Z"/></g>
<g><path style="opacity:1" fill="#232223" d="M 46.5,160.5 C 67.5056,182.112 91.839,186.945 119.5,175C 124.789,171.38 129.789,167.38 134.5,163C 137.146,162.503 139.813,162.336 142.5,162.5C 132.548,188.818 113.548,199.652 85.5,195C 67.6208,188.951 54.6208,177.451 46.5,160.5 Z"/></g>
<g><path style="opacity:1" fill="#fbfdfd" d="M -0.5,261.5 C 3.40114,276.401 12.7345,286.068 27.5,290.5C 18.1667,290.5 8.83333,290.5 -0.5,290.5C -0.5,280.833 -0.5,271.167 -0.5,261.5 Z"/></g>
<g><path style="opacity:1" fill="#06abab" d="M -0.5,254.5 C 4.00804,271.504 15.008,281.337 32.5,284C 70,284.167 107.5,284.333 145,284.5C 184.532,284.649 224.032,284.149 263.5,283C 277.863,278.473 286.863,268.973 290.5,254.5C 290.5,256.833 290.5,259.167 290.5,261.5C 286.608,276.393 277.274,286.059 262.5,290.5C 184.167,290.5 105.833,290.5 27.5,290.5C 12.7345,286.068 3.40114,276.401 -0.5,261.5C -0.5,259.167 -0.5,256.833 -0.5,254.5 Z"/></g>
<g><path style="opacity:1" fill="#fbfdfd" d="M 290.5,261.5 C 290.5,271.167 290.5,280.833 290.5,290.5C 281.167,290.5 271.833,290.5 262.5,290.5C 277.274,286.059 286.608,276.393 290.5,261.5 Z"/></g>
</svg>
